<svg width="50" height="50" viewBox="0 0 50 50" fill="none" xmlns="http://www.w3.org/2000/svg">
<rect width="50" height="50" rx="25" fill="#212121"/>
<path d="M25 17.6172C24.5477 17.6172 24.1797 17.9851 24.1797 18.4375C24.1797 18.4375 27.0476 21.5 27.5 21.5C27.9524 21.5 25.8204 18.8899 25.8204 18.4375C25.8204 17.9851 25.4524 17.6172 25 17.6172ZM34.8882 15.1118C32.2366 12.4603 28.725 11 25 11C21.2751 11 17.7635 12.4603 15.1119 15.1118C12.4604 17.7634 11.0001 21.275 11.0001 25C11.0001 28.241 12.1824 31.4125 14.336 33.9659V34.8437C14.336 36.2073 13.184 37.3593 11.8203 37.3593C11.3673 37.3593 11 37.7266 11 38.1797C11 38.6327 11.3672 39 11.8203 39H13.4609C15.2007 39 16.9232 38.3519 18.2765 37.2042C20.3897 38.3808 22.7017 38.9999 25 38.9999C28.725 38.9999 32.2366 37.5396 34.8882 34.8881C37.5397 32.2365 39 28.7249 39 25C39 21.275 37.5397 17.7634 34.8882 15.1118Z" fill="url(#paint0_linear_18780_11780)"/>
<path d="M23.1182 33V21.6485H26.2665V33H23.1182ZM24.6998 20.1852C24.2317 20.1852 23.8302 20.03 23.4952 19.7196C23.1651 19.4043 23 19.0274 23 18.5889C23 18.1554 23.1651 17.7834 23.4952 17.473C23.8302 17.1577 24.2317 17 24.6998 17C25.1678 17 25.5669 17.1577 25.897 17.473C26.232 17.7834 26.3995 18.1554 26.3995 18.5889C26.3995 19.0274 26.232 19.4043 25.897 19.7196C25.5669 20.03 25.1678 20.1852 24.6998 20.1852Z" fill="white"/>
<defs>
<linearGradient id="paint0_linear_18780_11780" x1="25" y1="38.9999" x2="25" y2="11" gradientUnits="userSpaceOnUse">
<stop stop-color="#00C0FF"/>
<stop offset="1" stop-color="#5558FF"/>
</linearGradient>
</defs>
</svg>
