<svg width="50" height="50" viewBox="0 0 50 50" fill="none" xmlns="http://www.w3.org/2000/svg">
<rect width="50" height="50" rx="25" fill="#212121"/>
<path d="M20.571 35.7188H28.7742V20.9531H20.571V35.7188ZM31.2351 17.6719H24.6726C24.2192 17.6719 23.8523 18.0388 23.8523 18.4922C23.8523 18.9456 24.2192 19.3125 24.6726 19.3125H31.2351C32.5921 19.3125 33.696 20.4164 33.696 21.7734C33.696 22.2269 34.0629 22.5938 34.5164 22.5938C34.9698 22.5938 35.3367 22.2269 35.3367 21.7734C35.3367 19.512 33.4974 17.6719 31.2351 17.6719Z" fill="url(#paint0_linear_18670_12058)"/>
<path d="M31.8257 21.8555C30.6281 20.264 29.2499 19.0992 27.7734 18.4102C29.4796 17.2617 30.4148 14.9374 30.4148 11.8203C30.4148 11.3609 30.0539 11 29.5945 11H27.9538C26.6085 11 25.4273 11.6399 24.6726 12.6406C23.9179 11.6399 22.7367 11 21.3913 11H19.7507C19.2913 11 18.9304 11.3609 18.9304 11.8203C18.9304 14.9374 19.8656 17.2617 21.5718 18.4102C20.0953 19.0992 18.7171 20.264 17.5195 21.8554C14.5992 25.7602 13.2867 31.3219 14.3858 35.0789C15.075 37.3921 17.3062 39 19.8328 39H29.5124C32.0389 39 34.2702 37.3921 34.9593 35.0789C36.0585 31.3219 34.746 25.7602 31.8257 21.8555ZM23.8523 27.5156H25.4929C26.8547 27.5156 27.9538 28.6148 27.9538 29.9766C27.9538 31.3382 26.8547 32.4375 25.4929 32.4375V33.2578C25.4929 33.7171 25.132 34.0781 24.6726 34.0781C24.2132 34.0781 23.8523 33.7171 23.8523 33.2578V32.4375C22.4905 32.4375 21.3913 31.3382 21.3913 29.9766C21.3913 29.5171 21.7522 29.1562 22.2117 29.1562C22.6711 29.1562 23.032 29.5171 23.032 29.9766C23.032 30.4359 23.3929 30.7969 23.8523 30.7969H25.4929C25.9523 30.7969 26.3132 30.4359 26.3132 29.9766C26.3132 29.5171 25.9523 29.1562 25.4929 29.1562H23.8523C22.4905 29.1562 21.3913 28.057 21.3913 26.6953C21.3913 25.3336 22.4905 24.2344 23.8523 24.2344V23.4141C23.8523 22.9546 24.2132 22.5938 24.6726 22.5938C25.132 22.5938 25.4929 22.9546 25.4929 23.4141V24.2344C26.8547 24.2344 27.9538 25.3336 27.9538 26.6953C27.9538 27.1546 27.593 27.5156 27.1335 27.5156C26.6741 27.5156 26.3132 27.1546 26.3132 26.6953C26.3132 26.2359 25.9523 25.875 25.4929 25.875H23.8523C23.3929 25.875 23.032 26.2359 23.032 26.6953C23.032 27.1546 23.3929 27.5156 23.8523 27.5156Z" fill="url(#paint1_linear_18670_12058)"/>
<circle cx="25.5" cy="29.5" r="6.5" fill="#32CDA1"/>
<path d="M30 24.5996L29.6012 25.8457H22L22.3988 24.5996H30ZM26.434 33L22.1408 28.1875L22.1173 27.2852H24.2522C24.8074 27.2852 25.2805 27.2135 25.6716 27.0703C26.0626 26.9235 26.3617 26.7051 26.5689 26.415C26.7761 26.1214 26.8798 25.7526 26.8798 25.3086C26.8798 24.6533 26.6647 24.1395 26.2346 23.7671C25.8045 23.3911 25.1437 23.2031 24.2522 23.2031H22L22.3988 22H24.2522C25.2063 22 25.9883 22.145 26.5982 22.4351C27.2121 22.7215 27.6657 23.1154 27.9589 23.6167C28.2561 24.1144 28.4047 24.6784 28.4047 25.3086C28.4047 25.8779 28.2678 26.4025 27.9941 26.8823C27.7243 27.3586 27.2903 27.7417 26.6921 28.0317C26.0978 28.3218 25.3118 28.4668 24.3343 28.4668H24.2991L28.2639 32.9141V33H26.434ZM30 22L29.6012 23.2461L23.6188 23.2031L24.0176 22H30Z" fill="#DFFFF0"/>
<defs>
<linearGradient id="paint0_linear_18670_12058" x1="27.9539" y1="35.7188" x2="27.9539" y2="17.6719" gradientUnits="userSpaceOnUse">
<stop stop-color="#C3FFE8"/>
<stop offset="0.9973" stop-color="#F0FFF4"/>
</linearGradient>
<linearGradient id="paint1_linear_18670_12058" x1="24.6726" y1="39" x2="24.6726" y2="11" gradientUnits="userSpaceOnUse">
<stop stop-color="#00B59C"/>
<stop offset="1" stop-color="#9CFFAC"/>
</linearGradient>
</defs>
</svg>
